<?xml version="1.0" encoding="UTF-8" standalone="no"?>
<svg
   xmlns:dc="http://purl.org/dc/elements/1.1/"
   xmlns:cc="http://creativecommons.org/ns#"
   xmlns:rdf="http://www.w3.org/1999/02/22-rdf-syntax-ns#"
   xmlns:svg="http://www.w3.org/2000/svg"
   xmlns="http://www.w3.org/2000/svg"
   xmlns:sodipodi="http://sodipodi.sourceforge.net/DTD/sodipodi-0.dtd"
   xmlns:inkscape="http://www.inkscape.org/namespaces/inkscape"
   inkscape:version="1.0beta1 (32d4812, 2019-09-19)"
   sodipodi:docname="logodjvsvlkzv.svg"
   id="svg887"
   version="1.1"
   height="67"
   width="149.5">
  <metadata
     id="metadata893">
    <rdf:RDF>
      <cc:Work
         rdf:about="">
        <dc:format>image/svg+xml</dc:format>
        <dc:type
           rdf:resource="http://purl.org/dc/dcmitype/StillImage" />
        <dc:title></dc:title>
      </cc:Work>
    </rdf:RDF>
  </metadata>
  <defs
     id="defs891" />
  <sodipodi:namedview
     inkscape:current-layer="svg887"
     inkscape:window-maximized="0"
     inkscape:window-y="23"
     inkscape:window-x="0"
     inkscape:cy="120.4456"
     inkscape:cx="-16.270272"
     inkscape:zoom="2.077017"
     fit-margin-left="1"
     fit-margin-right="1"
     fit-margin-bottom="1"
     fit-margin-top="1"
     showgrid="false"
     id="namedview889"
     inkscape:window-height="907"
     inkscape:window-width="1666"
     inkscape:pageshadow="2"
     inkscape:pageopacity="0"
     guidetolerance="10"
     gridtolerance="10"
     objecttolerance="10"
     borderopacity="1"
     inkscape:document-rotation="0"
     bordercolor="#666666"
     pagecolor="#ffffff" />
  <desc
     id="desc833">TriLizard character. Created and drewn by boraini.</desc>
  <g
     transform="translate(1,1)"
     id="g885">
    <g
       id="g837"
       name="tail">
      <path
         inkscape:connector-curvature="0"
         id="path835"
         fill="#f84"
         stroke="#f80"
         d="m 100,31 h 20 q 2,0 2,-2 V 18 q 0,-2 2,-2 h 22 c 2,0 2,4 0,4 h -18 q -2,0 -2,2 v 11 q 0,2 -2,2 h -24" />
    </g>
    <g
       id="g855"
       name="feet">
      <rect
         id="rect839"
         stroke="#f80"
         fill="#f84"
         height="20"
         width="10"
         y="44"
         x="30" />
      <path
         inkscape:connector-curvature="0"
         id="path841"
         stroke-width="2"
         stroke="#aaa"
         fill="#fff"
         d="m 30,65 v -2.5 c 0,-5 5,-5 5,0 V 65 62.5 c 0,-5 5,-5 5,0 V 65 Z" />
      <rect
         id="rect843"
         stroke="#f80"
         fill="#f84"
         height="20"
         width="10"
         y="44"
         x="45" />
      <path
         inkscape:connector-curvature="0"
         id="path845"
         stroke-width="2"
         stroke="#aaa"
         fill="#fff"
         d="m 45,65 v -2.5 c 0,-5 5,-5 5,0 V 65 62.5 c 0,-5 5,-5 5,0 V 65 Z" />
      <rect
         id="rect847"
         stroke="#f80"
         fill="#f84"
         height="20"
         width="10"
         y="44"
         x="90" />
      <path
         inkscape:connector-curvature="0"
         id="path849"
         stroke-width="2"
         stroke="#aaa"
         fill="#fff"
         d="m 90,65 v -2.5 c 0,-5 5,-5 5,0 V 65 62.5 c 0,-5 5,-5 5,0 V 65 Z" />
      <rect
         id="rect851"
         stroke="#f80"
         fill="#f84"
         height="20"
         width="10"
         y="44"
         x="75" />
      <path
         inkscape:connector-curvature="0"
         id="path853"
         stroke-width="2"
         stroke="#aaa"
         fill="#fff"
         d="m 75,65 v -2.5 c 0,-5 5,-5 5,0 V 65 62.5 c 0,-5 5,-5 5,0 V 65 Z" />
    </g>
    <g
       id="g863"
       name="body">
      <rect
         id="rect857"
         ry="3"
         rx="3"
         stroke-width="2"
         stroke="#22f"
         fill="#44f"
         height="28"
         width="78"
         y="19"
         x="26" />
      <path
         inkscape:connector-curvature="0"
         id="path859"
         fill="#f84"
         stroke-width="2"
         stroke="#f80"
         d="m 36,19 8,21 8,-19 v 0 l 8,19 8,-19 v 0 l 8,19 8,-19 v 0 l 8,19 8,-21 z" />
      <!--<rect x="25" y="18" width="80" height="30" fill="none" stroke="#22f" stroke-width="2" rx="3" ry="3"></rect>-->
      <path
         inkscape:connector-curvature="0"
         id="path861"
         stroke="#f80"
         stroke-width="2"
         d="m 45,19 h 55" />
    </g>
    <g
       id="g883"
       onclick="alert('Tiyze n\'aptin?!', 'TriLizard diyor ki:');"
       name="head">
      <rect
         id="rect865"
         ry="3"
         rx="3"
         stroke-width="2"
         stroke="#f80"
         fill="#f84"
         height="15"
         width="10"
         y="0"
         x="10" />
      <rect
         id="rect867"
         ry="3"
         rx="3"
         stroke-width="2"
         stroke="#f80"
         fill="#f84"
         height="15"
         width="10"
         y="0"
         x="30" />
      <rect
         id="rect869"
         ry="2"
         rx="2"
         stroke="none"
         fill="#fff"
         height="6"
         width="6"
         y="3"
         x="12" />
      <rect
         id="rect871"
         ry="2"
         rx="2"
         stroke="none"
         fill="#fff"
         height="6"
         width="6"
         y="3"
         x="32" />
      <rect
         id="rect873"
         ry="2"
         rx="2"
         stroke="none"
         fill="#44f"
         height="4"
         width="4"
         y="4"
         x="13" />
      <rect
         id="rect875"
         ry="2"
         rx="2"
         stroke="none"
         fill="#44f"
         height="4"
         width="4"
         y="4"
         x="33" />
      <rect
         id="rect877"
         ry="3"
         rx="3"
         stroke-width="2"
         stroke="#22f"
         fill="#44f"
         height="15"
         width="50"
         y="10"
         x="0" />
      <rect
         id="rect879"
         ry="3"
         rx="3"
         stroke="none"
         fill="#fff"
         height="9"
         width="44"
         y="13"
         x="3" />
      <path
         inkscape:connector-curvature="0"
         id="path881"
         fill="none"
         stroke="black"
         stroke-width="2"
         d="m 3,22 5.5,-9 5.5,9 5.5,-9 5.5,9 5.5,-9 5.5,9 5.5,-9 5.5,9" />
    </g>
  </g>
</svg>
